PathFileType	4	(X/Y/Z)	Patient4_TMGait_0pt2_03_left_07.trc.trc
DataRate	CameraRate	NumFrames	NumMarkers	Units	OrigDataRate	OrigDataStartFrame	OrigNumFrames
46.204620462046	46.204620462046	4	33	mm	46.204620462046	89	       141
Frame#	Time	Sacral			L.Shoulder			Chest			R.Shoulder			Neck			R.ASIS			L.ASIS			R.Thigh.Superior			R.Thigh.Lateral			R.Thigh.Inferior			R.Patella			L.Thigh.Superior			L.Thigh.Lateral			L.Thigh.Inferior			L.Patella			L.Shank.Superior			L.Shank.Lateral			L.Shank.Inferior			R.Shank.Superior			R.Shank.Lateral			R.Shank.Inferior			R.Heel			R.Midfoot.Superior			R.Midfoot.Lateral			R.Toe			L.Heel			L.Midfoot.Lateral			L.Midfoot.Superior			L.Toe			L.Elbow			L.Wrist			R.Elbow			R.Wrist			
		X1	Y1	Z1	X2	Y2	Z2	X3	Y3	Z3	X4	Y4	Z4	X5	Y5	Z5	X6	Y6	Z6	X7	Y7	Z7	X8	Y8	Z8	X9	Y9	Z9	X10	Y10	Z10	X11	Y11	Z11	X12	Y12	Z12	X13	Y13	Z13	X14	Y14	Z14	X15	Y15	Z15	X16	Y16	Z16	X17	Y17	Z17	X18	Y18	Z18	X19	Y19	Z19	X20	Y20	Z20	X21	Y21	Z21	X22	Y22	Z22	X23	Y23	Z23	X24	Y24	Z24	X25	Y25	Z25	X26	Y26	Z26	X27	Y27	Z27	X28	Y28	Z28	X29	Y29	Z29	X30	Y30	Z30	X31	Y31	Z31	X32	Y32	Z32	X33	Y33	Z33	

89	15.694571428571	780.115592040232	1011.459583997957	569.627359480826	965.668933329661	1436.451453816629	395.780303998833	1062.894987486553	1366.293372132052	558.372830655807	978.072996042557	1439.955293378838	730.727941176495	942.004251675158	1499.387151118995	554.671585853671	1008.352621299144	939.544330437306	686.782405934387	995.728665256259	968.712215100095	411.813619974082	1048.549388908130	740.637136944088	641.304386681436	973.485113582782	628.938834862922	703.992328545869	1043.253702074803	580.476963722109	615.439026904151	1044.363252733874	492.962848268926	618.457578311112	1033.350002041894	753.154994271741	419.410019102387	944.174219526240	644.551231977004	340.490019361722	1031.570643450399	559.106068017532	391.021484004045	1030.142031960697	481.115906240932	385.040272655543	977.489282205584	419.452671926751	373.361035409365	855.364761349323	346.983753570090	311.829965777513	872.482573637896	215.238916772627	361.522957895183	1015.779454136896	402.798736324484	625.899544590292	951.022630459995	298.658210560508	695.345262099225	980.542929087116	204.944331720361	624.139522435603	839.358395740871	42.649915713444	612.693181262783	1014.710912451957	96.889247752928	623.205208893125	933.037944094332	36.853399727337	673.998326046839	1137.528166128336	46.024269575177	632.159434815621	705.193559124039	96.960514149362	384.151469858583	776.618813182341	73.643306665179	305.870668336411	872.422525520513	112.275965885797	332.733099043590	981.790171654033	34.856781079936	305.454761824955	960.131229964884	1083.543943635118	274.616563649125	1092.663046485688	861.247250452338	291.539329532864	931.923830346336	1116.482089543266	892.743631443944	1105.333365175049	926.462044065254	928.436142561159	
90	15.716214285714	779.672565541113	1011.231320510864	576.570512201958	961.813737300626	1436.319927068082	400.367222716223	1061.973836472178	1366.235734079069	561.355702326792	980.263827422031	1440.112813383214	735.188604263988	941.213909739091	1499.356848404656	559.541778506002	1008.972795251334	939.124984155811	690.603396717945	993.150402865455	969.107892406280	416.043994552192	1047.851974473188	739.936257178246	644.738360023619	972.531634950320	628.384129965165	707.403202435975	1041.580216695257	579.922771839871	618.382385398620	1042.243484456767	492.309516939699	621.084050279490	1037.755493578077	757.406730093463	423.909272928494	953.734442767215	645.982979211434	344.416812901400	1044.258113806533	563.027213182292	395.027650735930	1044.206775283332	482.999168726612	387.568012749677	988.395793360491	421.592874688519	376.462787933453	862.730360504128	355.050236913125	316.021078853078	874.724870238290	222.818414351351	364.834028923127	1013.214384917045	402.260784340791	627.989691253408	948.061611668683	297.954099413258	696.812516254308	976.999918464723	204.638385207713	624.996530445129	834.996463725130	42.669122932010	612.747729876505	1010.466714387229	96.777746826371	623.316042995839	928.688633721765	36.838858096084	674.028212650429	1133.216762176899	45.719209488495	632.219209819320	702.810310728103	113.131095200203	388.430160999896	772.156594444424	86.406242483975	309.502978506654	869.970023655838	119.833460495833	335.543711589777	974.352135271445	36.670545884257	307.204787188553	942.691798994083	1083.221804572894	281.247231665531	1050.914829596429	847.105788702551	292.480575275370	942.767297661885	1119.198838475138	903.411807784716	1127.135041070081	940.549079679668	939.085348137298	
91	15.737857142857	779.163789472633	1010.749177030797	582.995455069017	957.918983824049	1436.101695054115	404.673345506695	1060.806015766948	1366.053248224603	564.123631197126	981.990962215302	1440.088228896827	739.306823699088	940.206826249360	1499.160448737579	564.090154536417	1009.417650543959	938.632871429122	694.252240717708	990.606883181074	969.227589444347	420.164952676644	1047.415007735058	739.264447345294	648.021900002107	971.972045055735	627.710297658462	710.538545162377	1040.459310479312	579.324281086965	621.122297318947	1040.838418788117	491.506333695576	623.526454117497	1042.344538283288	761.690162592191	428.746835676290	963.906489419483	647.549129044509	348.413180169720	1057.374333491480	567.262094644719	399.454499121916	1058.671084595789	485.166539766922	390.505609685980	999.620403562606	423.951729418894	379.892389609030	870.344181567875	363.969930716604	320.808187331765	876.553236280119	231.522916574913	368.958144027923	1011.143693767528	401.592707089542	629.904689769746	945.396042155823	297.269931525976	698.154084712726	973.631080352391	204.284814151142	625.792648497615	830.608921157885	42.699790434508	612.806481326263	1006.211860069485	96.690452451289	623.420320357306	924.316999203951	36.829979382468	674.058256884065	1128.873942032628	45.457749714831	632.273317480901	699.961201455778	131.329034083648	393.955852013857	766.893602170062	101.215645437180	314.235585724261	866.609044998684	129.026135285096	339.338806893059	965.519922753388	39.824605204726	309.664026705331	924.804693334951	1083.599539292586	287.447878520408	1008.579523173140	836.951236831508	293.670004994501	953.647222627432	1121.578349466169	912.993159874345	1148.500671708598	955.273403983133	948.392266187855	
92	15.759500000000	778.609240852687	1010.024779294099	588.918445462493	954.040238852715	1435.814382939920	408.694270873495	1059.415242419379	1365.771589567405	566.696496579120	983.228481747504	1439.893628161737	743.088255662736	938.979185761135	1498.805961804112	568.310679696798	1009.746482543345	938.093655398806	697.764134093838	988.183758043669	969.078273428642	424.186366625016	1047.303985860136	738.626671158831	651.172531407380	971.876009059366	626.910675690723	713.424429726857	1039.955764364672	578.677087664109	623.669915768561	1040.211856048840	490.541068479429	625.793461308539	1046.874905501850	765.834973149755	433.835694332685	974.179837175845	649.249453182859	352.417956888805	1070.331423081363	571.676761904055	404.134301600108	1072.932587602295	487.560351882142	393.713615129327	1010.652287987970	426.476234289743	383.518039450033	877.793977401814	373.490333901543	326.056587211118	877.789456115611	241.103663963279	373.767988683541	1009.610683891868	400.788950468114	631.658974240959	943.049167286080	296.617339523830	699.388230695165	970.451263354736	203.889050867222	626.543144313505	826.208668594055	42.749900935630	612.876062724094	1001.965679797746	96.630870271981	623.526884963197	919.936378463093	36.827034067348	674.088708142617	1124.513285975573	45.236929076623	632.320248129918	696.633655473395	150.948305705704	400.583228942286	760.901106704573	117.585552769045	319.949182379296	862.341311689679	139.578903706264	344.000797072452	955.482655580944	44.347349421710	312.759708277904	906.687245145633	1084.729468635930	293.181184743051	966.610918711732	830.674154804391	295.400021418121	964.499020970604	1123.513629351777	921.301772167873	1169.253375458742	970.462476324991	956.175396872263	
